{
  "source": "C:\\Users\\Peter\\Desktop\\stuff\\MIUN\\quantitative_research\\video_compression\\videos\\BVI-HD\\BVI-HD_CDVL_videos\\ORIG\\Fountain_1920x1080_50fps.mp4",
  "output": "C:\\Users\\Peter\\Desktop\\stuff\\MIUN\\quantitative_research\\video_compression\\compressed_videos\\BVI-HD\\h264\\1\\Fountain_1920x1080_50fps_h264.mp4",
  "codec": "h264",
  "ok": "Input #0, mov,mp4,m4a,3gp,3g2,mj2, from 'C:\\Users\\Peter\\Desktop\\stuff\\MIUN\\quantitative_research\\video_compression\\videos\\BVI-HD\\BVI-HD_CDVL_videos\\ORIG\\Fountain_1920x1080_50fps.mp4':\n  Metadata:\n    major_brand     : isom\n    minor_version   : 512\n    compatible_brands: isomiso2avc1mp41\n    encoder         : Lavf54.28.101\n  Duration: 00:00:05.00, start: 0.000000, bitrate: 603457 kb/s\n  Stream #0:0[0x1](und): Video: h264 (High 4:4:4 Predictive) (avc1 / 0x31637661), yuv420p(progressive), 1920x1080, 603453 kb/s, 50 fps, 50 tbr, 50 tbn (default)\n    Metadata:\n      handler_name    : VideoHandler\n      vendor_id       : [0][0][0][0]\n[out#0/mp4 @ 000001628d259bc0] Codec AVOption b:a (set bitrate (in bits/s)) has not been used for any stream. The most likely reason is either wrong type (e.g. a video option with no video streams) or that it is a private option of some decoder which was not actually used for any stream.\nStream mapping:\n  Stream #0:0 -> #0:0 (h264 (native) -> h264 (libx264))\nPress [q] to stop, [?] for help\n[libx264 @ 000001628d805980] using cpu capabilities: MMX2 SSE2Fast SSSE3 SSE4.2 AVX FMA3 BMI2 AVX2\n[libx264 @ 000001628d805980] profile High, level 5.0, 4:2:0, 8-bit\n[libx264 @ 000001628d805980] 264 - core 165 r3222 b35605a - H.264/MPEG-4 AVC codec - Copyleft 2003-2025 - http://www.videolan.org/x264.html - options: cabac=1 ref=5 deblock=1:0:0 analyse=0x3:0x113 me=hex subme=8 psy=1 psy_rd=1.00:0.00 mixed_ref=1 me_range=16 chroma_me=1 trellis=2 8x8dct=1 cqm=0 deadzone=21,11 fast_pskip=1 chroma_qp_offset=-2 threads=18 lookahead_threads=3 sliced_threads=0 nr=0 decimate=1 interlaced=0 bluray_compat=0 constrained_intra=0 bframes=3 b_pyramid=2 b_adapt=1 b_bias=0 direct=3 weightb=1 open_gop=0 weightp=2 keyint=250 keyint_min=25 scenecut=40 intra_refresh=0 rc_lookahead=50 rc=cbr mbtree=1 bitrate=1000 ratetol=1.0 qcomp=0.60 qpmin=0 qpmax=69 qpstep=4 vbv_maxrate=1000 vbv_bufsize=1000 nal_hrd=none filler=0 ip_ratio=1.40 aq=1:1.00\nOutput #0, mp4, to 'C:\\Users\\Peter\\Desktop\\stuff\\MIUN\\quantitative_research\\video_compression\\compressed_videos\\BVI-HD\\h264\\1\\Fountain_1920x1080_50fps_h264.mp4':\n  Metadata:\n    major_brand     : isom\n    minor_version   : 512\n    compatible_brands: isomiso2avc1mp41\n    encoder         : Lavf62.3.100\n  Stream #0:0(und): Video: h264 (avc1 / 0x31637661), yuv420p(tv, progressive), 1920x1080, q=2-31, 1000 kb/s, 50 fps, 12800 tbn (default)\n    Metadata:\n      encoder         : Lavc62.11.100 libx264\n      handler_name    : VideoHandler\n      vendor_id       : [0][0][0][0]\n    Side data:\n      cpb: bitrate max/min/avg: 1000000/0/1000000 buffer size: 1000000 vbv_delay: N/A\nframe=    0 fps=0.0 q=0.0 size=       0KiB time=N/A bitrate=N/A speed=N/A elapsed=0:00:00.52    \nframe=    0 fps=0.0 q=0.0 size=       0KiB time=N/A bitrate=N/A speed=N/A elapsed=0:00:01.15    \nframe=    0 fps=0.0 q=0.0 size=       0KiB time=N/A bitrate=N/A speed=N/A elapsed=0:00:01.71    \nframe=    0 fps=0.0 q=0.0 size=       0KiB time=N/A bitrate=N/A speed=N/A elapsed=0:00:02.28    \nframe=   24 fps=8.3 q=49.0 size=       0KiB time=00:00:00.44 bitrate=   0.9kbits/s speed=0.152x elapsed=0:00:02.89    \nframe=   52 fps= 15 q=49.0 size=       0KiB time=00:00:00.96 bitrate=   0.4kbits/s speed=0.276x elapsed=0:00:03.47    \nframe=   71 fps= 18 q=49.0 size=       0KiB time=00:00:01.36 bitrate=   0.3kbits/s speed=0.337x elapsed=0:00:04.03    \nframe=   96 fps= 21 q=49.0 size=       0KiB time=00:00:01.80 bitrate=   0.2kbits/s speed=0.388x elapsed=0:00:04.64    \nframe=  120 fps= 23 q=49.0 size=       0KiB time=00:00:02.30 bitrate=   0.2kbits/s speed=0.438x elapsed=0:00:05.25    \nframe=  133 fps= 23 q=49.0 size=       0KiB time=00:00:02.62 bitrate=   0.1kbits/s speed=0.448x elapsed=0:00:05.84    \nframe=  147 fps= 23 q=49.0 size=       0KiB time=00:00:02.90 bitrate=   0.1kbits/s speed=0.452x elapsed=0:00:06.41    \nframe=  179 fps= 26 q=49.0 size=       0KiB time=00:00:03.54 bitrate=   0.1kbits/s speed=0.509x elapsed=0:00:06.95    \nframe=  236 fps= 32 q=-1.0 size=     256KiB time=00:00:04.68 bitrate= 448.2kbits/s speed=0.626x elapsed=0:00:07.47    \n[mp4 @ 000001628d26a980] Starting second pass: moving the moov atom to the beginning of the file\n[out#0/mp4 @ 000001628d259bc0] video:396KiB audio:0KiB subtitle:0KiB other streams:0KiB global headers:0KiB muxing overhead: 0.949595%\nframe=  250 fps= 33 q=-1.0 Lsize=     399KiB time=00:00:04.96 bitrate= 659.6kbits/s speed=0.653x elapsed=0:00:07.59    \n[libx264 @ 000001628d805980] frame I:2     Avg QP:47.45  size:  7771\n[libx264 @ 000001628d805980] frame P:64    Avg QP:47.63  size:  2808\n[libx264 @ 000001628d805980] frame B:184   Avg QP:49.31  size:  1136\n[libx264 @ 000001628d805980] consecutive B-frames:  1.6%  0.8%  0.0% 97.6%\n[libx264 @ 000001628d805980] mb I  I16..4: 33.2% 66.2%  0.5%\n[libx264 @ 000001628d805980] mb P  I16..4:  7.6%  2.2%  0.0%  P16..4: 12.3%  0.2%  0.8%  0.0%  0.0%    skip:76.8%\n[libx264 @ 000001628d805980] mb B  I16..4:  0.1%  0.0%  0.0%  B16..8: 16.6%  0.0%  0.0%  direct: 0.2%  skip:83.0%  L0:23.6% L1:76.3% BI: 0.0%\n[libx264 @ 000001628d805980] 8x8 transform intra:32.7% inter:78.0%\n[libx264 @ 000001628d805980] direct mvs  spatial:94.6% temporal:5.4%\n[libx264 @ 000001628d805980] coded y,uvDC,uvAC intra: 1.8% 14.1% 0.6% inter: 0.1% 1.5% 0.0%\n[libx264 @ 000001628d805980] i16 v,h,dc,p: 59% 24%  3% 15%\n[libx264 @ 000001628d805980] i8 v,h,dc,ddl,ddr,vr,hd,vl,hu: 13%  8% 71%  1%  2%  1%  1%  1%  1%\n[libx264 @ 000001628d805980] i4 v,h,dc,ddl,ddr,vr,hd,vl,hu:  7%  5% 13% 13% 19% 10% 11%  8% 13%\n[libx264 @ 000001628d805980] i8c dc,h,v,p: 91%  6%  2%  0%\n[libx264 @ 000001628d805980] Weighted P-Frames: Y:0.0% UV:0.0%\n[libx264 @ 000001628d805980] ref P L0: 59.4%  2.2% 20.9%  7.4% 10.0%  0.1%\n[libx264 @ 000001628d805980] ref B L0: 69.9% 18.4%  9.3%  2.3%\n[libx264 @ 000001628d805980] ref B L1: 87.9% 12.1%\n[libx264 @ 000001628d805980] kb/s:646.97\n",
  "seconds": 8.021371603012085,
  "probe_out": {}
}